# xmcd
#
# Track frame offsets: 
#        150
#        3115
#        20292
#        38377
#        54163
#        70181
#        91847
#        109407
#        130901
#        148488
#        167394
#        186932
#
# Disc length: 2708 seconds
#
# Revision: 0
# Processed by: cddbd v1.5.2PL0 Copyright (c) Steve Scherf et al.
# Submitted via: ExactAudioCopy v0.99pb5
#
DISCID=920a920c
DTITLE=Sally Shapiro - Somewhere Else
DYEAR=2013
DGENRE=Disco
TTITLE0=Prescript
TTITLE1=I Dream With An Angel Tonight
TTITLE2=All My Life
TTITLE3=This City's Local Italo Disco DJ Has A Crush On Me
TTITLE4=What Can I Do
TTITLE5=If It Doesn't Rain
TTITLE6=Sundown
TTITLE7=Starman
TTITLE8=Lives Together
TTITLE9=Don't Be Afraid (Alternative Version)
TTITLE10=Architectured Love
TTITLE11=Postscript
EXTD=
EXTT0=
EXTT1=
EXTT2=
EXTT3=
EXTT4=
EXTT5=
EXTT6=
EXTT7=
EXTT8=
EXTT9=
EXTT10=
EXTT11=
PLAYORDER=
